<svg viewBox="0 0 156 535" fill="none" xmlns="http://www.w3.org/2000/svg">
<g filter="url(#filter0_d_4_235)">
<path fill-rule="evenodd" clip-rule="evenodd" d="M4 61.3493C7.65543 60.8044 11.3951 60.522 15.1992 60.522C57.0045 60.522 90.909 94.5032 90.909 136.232V526.9H92.1363V136.232C92.1363 93.8128 57.6181 59.2947 15.1992 59.2947C11.3962 59.2947 7.65677 59.5721 4 60.1078V61.3493Z" fill="#F3FFFD" fill-opacity="0.4"/>
<path fill-rule="evenodd" clip-rule="evenodd" d="M4 81.4387C7.61942 80.7001 11.365 80.3123 15.1995 80.3123C46.0357 80.3123 71.1955 105.395 71.1955 136.232V526.9H72.3461V136.232C72.3461 104.705 46.726 79.085 15.1995 79.085C11.3672 79.085 7.62228 79.4635 4 80.1852V81.4387Z" fill="#F3FFFD" fill-opacity="0.4"/>
<path fill-rule="evenodd" clip-rule="evenodd" d="M4 41.3828C7.67379 40.9526 11.4109 40.7314 15.1992 40.7314C67.8969 40.7314 110.699 83.5339 110.699 136.232V526.9H111.927V136.232C111.927 82.9202 68.5106 39.5808 15.1992 39.5808C11.4118 39.5808 7.67477 39.7995 4 40.2251V41.3828Z" fill="#F3FFFD" fill-opacity="0.4"/>
<path fill-rule="evenodd" clip-rule="evenodd" d="M4 21.4799C7.68546 21.1234 11.4212 20.9409 15.199 20.9409C78.789 20.9409 130.49 72.6414 130.49 136.231V526.9H131.64V136.231C131.64 72.0277 79.4027 19.7903 15.199 19.7903C11.4218 19.7903 7.6861 19.9711 4 20.3245V21.4799Z" fill="#F3FFFD" fill-opacity="0.4"/>
<path fill-rule="evenodd" clip-rule="evenodd" d="M4 1.61043C7.69332 1.3059 11.4283 1.1506 15.1988 1.1506C89.6813 1.1506 150.28 61.7491 150.28 136.232V526.9H151.43V136.232C151.43 61.1354 90.3716 0 15.1988 0C11.4287 0 7.69378 0.154088 4 0.456294V1.61043Z" fill="#F3FFFD" fill-opacity="0.4"/>
</g>
<defs>
<filter id="filter0_d_4_235" x="0" y="0" width="155.431" height="534.9" filterUnits="userSpaceOnUse" color-interpolation-filters="sRGB">
<feFlood flood-opacity="0" result="BackgroundImageFix"/>
<feColorMatrix in="SourceAlpha" type="matrix" values="0 0 0 0 0 0 0 0 0 0 0 0 0 0 0 0 0 0 127 0" result="hardAlpha"/>
<feOffset dy="4"/>
<feGaussianBlur stdDeviation="2"/>
<feComposite in2="hardAlpha" operator="out"/>
<feColorMatrix type="matrix" values="0 0 0 0 0 0 0 0 0 0 0 0 0 0 0 0 0 0 0.25 0"/>
<feBlend mode="normal" in2="BackgroundImageFix" result="effect1_dropShadow_4_235"/>
<feBlend mode="normal" in="SourceGraphic" in2="effect1_dropShadow_4_235" result="shape"/>
</filter>
</defs>
</svg>
