<svg width="120" height="120" viewBox="0 0 120 120" fill="none" xmlns="http://www.w3.org/2000/svg">
<circle cx="60" cy="60" r="60" fill="white"/>
<circle cx="60" cy="60" r="55.5" stroke="#219D80" stroke-opacity="0.15" stroke-width="9"/>
<path d="M60 27.0646C41.7742 27.0646 27 41.8387 27 60.0646C27 78.2904 41.7742 93.0646 60 93.0646C78.2258 93.0646 93 78.2904 93 60.0646C93 41.8387 78.2258 27.0646 60 27.0646ZM58.4911 59.0307C58.1065 59.672 57.4132 60.0646 56.6654 60.0646H56.6242C56.06 60.0646 55.5184 60.2895 55.1192 60.6886L54.3661 61.4418C53.9509 61.857 53.9509 62.5316 54.3661 62.9468L55.1192 63.6999C55.5184 64.0991 55.7433 64.6407 55.7433 65.2049V66.4517C55.7433 67.628 54.7905 68.5807 53.6142 68.5807H52.8012C51.9948 68.5807 51.2577 68.1256 50.8971 67.4031L47.8871 61.3846C47.5625 60.7352 46.6962 60.5942 46.1826 61.1078L43.5918 63.6972C43.1926 64.0964 42.651 64.3213 42.0869 64.3213H33.761C33.5361 62.9321 33.3871 61.5176 33.3871 60.0646C33.3871 45.3902 45.3256 33.4517 60 33.4517C62.8622 33.4517 65.6153 33.9187 68.2008 34.7584L61.5263 39.8853C60.8463 40.3391 60.9102 41.357 61.6407 41.723L63.0818 42.4428C63.803 42.8034 64.2581 43.5406 64.2581 44.347V54.742C64.2581 55.3301 63.7817 55.8065 63.1936 55.8065H62.7864C62.3832 55.8065 62.0146 55.579 61.835 55.2184C61.6274 54.8032 61.0419 54.7806 60.8024 55.1784L58.4911 59.0307ZM81.2903 73.6944C81.2903 74.2586 81.0654 74.8001 80.6663 75.1993L79.3928 76.4728C78.9936 76.872 78.4521 77.0968 77.8879 77.0968H75.8706C75.3064 77.0968 74.7648 76.872 74.3656 76.4728L72.6345 74.7416C72.1995 74.3067 71.6594 73.9918 71.0666 73.8276C70.4739 73.6635 69.8487 73.6556 69.252 73.8048L66.4217 74.5127C66.2527 74.5553 66.0797 74.5766 65.9054 74.5766H64.5295C63.9653 74.5766 63.4238 74.3517 63.0246 73.9525L61.4398 72.3677C61.2403 72.1679 61.1283 71.897 61.1284 71.6146V70.2573C61.1284 69.8222 61.3932 69.431 61.7977 69.2687L67.0325 67.1742C67.2959 67.0691 67.5461 66.932 67.7763 66.7684L70.9313 64.5209C71.1115 64.3925 71.3274 64.3237 71.5487 64.324H73.1574C73.5872 64.324 73.9758 64.5821 74.1408 64.98L74.8527 66.6899C74.8931 66.7868 74.9613 66.8696 75.0486 66.9278C75.136 66.9861 75.2387 67.0172 75.3437 67.0172H75.8493C76.0862 67.0172 76.2951 66.8602 76.3603 66.634L76.9192 64.7085C76.9857 64.481 77.1933 64.3253 77.4301 64.3253H78.2365C78.5306 64.3253 78.7688 64.5635 78.7688 64.8576V66.5781C78.7688 66.8602 78.8805 67.1316 79.0801 67.3312L80.6649 68.916C81.0641 69.3152 81.289 69.8568 81.289 70.421V73.6944H81.2903Z" fill="#219D80"/>
<mask id="path-4-inside-1_4_191" fill="white">
<path fill-rule="evenodd" clip-rule="evenodd" d="M75.4609 2.02645C67.9844 0.0325051 60.2069 -0.492846 52.5567 0.463536C50.092 0.771655 48.5177 3.16181 49.0095 5.59649C49.501 8.02934 51.8701 9.58342 54.3371 9.31092C56.1963 9.10555 58.0856 9.00012 59.9995 9.00012C88.1661 9.00012 111 31.8336 111 60.0001C111 88.1666 88.1661 111 59.9995 111C55.6319 111 51.3925 110.451 47.3465 109.418C44.9422 108.804 42.3798 110.013 41.5552 112.353C40.7306 114.693 41.9564 117.277 44.3519 117.924C51.7963 119.935 59.5729 120.496 67.2553 119.56C76.4274 118.442 85.2175 115.222 92.9403 110.149C100.663 105.076 107.11 98.2882 111.778 90.3144C116.447 82.3406 119.21 73.3963 119.854 64.1788C120.497 54.9614 119.003 45.7199 115.488 37.1747C111.973 28.6295 106.532 21.0117 99.589 14.915C92.646 8.81826 84.3887 4.40747 75.4609 2.02645Z"/>
</mask>
<path fill-rule="evenodd" clip-rule="evenodd" d="M75.4609 2.02645C67.9844 0.0325051 60.2069 -0.492846 52.5567 0.463536C50.092 0.771655 48.5177 3.16181 49.0095 5.59649C49.501 8.02934 51.8701 9.58342 54.3371 9.31092C56.1963 9.10555 58.0856 9.00012 59.9995 9.00012C88.1661 9.00012 111 31.8336 111 60.0001C111 88.1666 88.1661 111 59.9995 111C55.6319 111 51.3925 110.451 47.3465 109.418C44.9422 108.804 42.3798 110.013 41.5552 112.353C40.7306 114.693 41.9564 117.277 44.3519 117.924C51.7963 119.935 59.5729 120.496 67.2553 119.56C76.4274 118.442 85.2175 115.222 92.9403 110.149C100.663 105.076 107.11 98.2882 111.778 90.3144C116.447 82.3406 119.21 73.3963 119.854 64.1788C120.497 54.9614 119.003 45.7199 115.488 37.1747C111.973 28.6295 106.532 21.0117 99.589 14.915C92.646 8.81826 84.3887 4.40747 75.4609 2.02645Z" fill="#C4C4C4"/>
<path d="M75.4609 2.02645L73.1417 10.7225L75.4609 2.02645ZM67.2553 119.56L66.167 110.626L67.2553 119.56ZM111.778 90.3144L104.012 85.7673L111.778 90.3144ZM119.854 64.1788L128.832 64.8056L128.832 64.8056L119.854 64.1788ZM115.488 37.1747L107.165 40.5985V40.5985L115.488 37.1747ZM99.589 14.915L105.527 8.1522V8.1522L99.589 14.915ZM47.3465 109.418L45.1205 118.139L47.3465 109.418ZM44.3519 117.924L42.0048 126.612L44.3519 117.924ZM54.3371 9.31092L53.349 0.365329L54.3371 9.31092ZM53.6731 9.39402C60.1758 8.5811 66.7867 9.02765 73.1417 10.7225L77.7801 -6.6696C69.1821 -8.96264 60.238 -9.56679 51.4403 -8.46695L53.6731 9.39402ZM55.3252 18.2565C56.8569 18.0873 58.4164 18.0001 59.9995 18.0001V0.000123016C57.7548 0.000123016 55.5356 0.123787 53.349 0.365329L55.3252 18.2565ZM59.9995 18.0001C83.1955 18.0001 102 36.8042 102 60.0001H120C120 26.863 93.1366 0.000123016 59.9995 0.000123016V18.0001ZM102 60.0001C102 83.1961 83.1955 102 59.9995 102V120C93.1366 120 120 93.1372 120 60.0001H102ZM59.9995 102C56.3889 102 52.8971 101.547 49.5726 100.698L45.1205 118.139C49.8878 119.356 54.8749 120 59.9995 120V102ZM66.167 110.626C59.6369 111.421 53.0268 110.945 46.6991 109.235L42.0048 126.612C50.5658 128.925 59.5089 129.57 68.3437 128.494L66.167 110.626ZM87.9992 102.627C81.4348 106.939 73.9632 109.676 66.167 110.626L68.3437 128.494C78.8916 127.209 89.0002 123.505 97.8814 117.671L87.9992 102.627ZM104.012 85.7673C100.043 92.545 94.5636 98.3147 87.9992 102.627L97.8814 117.671C106.763 111.838 114.177 104.031 119.545 94.8615L104.012 85.7673ZM110.876 63.552C110.329 71.3869 107.98 78.9895 104.012 85.7673L119.545 94.8615C124.914 85.6916 128.092 75.4057 128.832 64.8056L110.876 63.552ZM107.165 40.5985C110.153 47.8619 111.423 55.7172 110.876 63.552L128.832 64.8056C129.572 54.2056 127.854 43.5778 123.812 33.7509L107.165 40.5985ZM93.6506 21.6777C99.5522 26.8599 104.177 33.3351 107.165 40.5985L123.812 33.7509C119.769 23.924 113.512 15.1634 105.527 8.1522L93.6506 21.6777ZM73.1417 10.7225C80.7303 12.7464 87.749 16.4955 93.6506 21.6777L105.527 8.1522C97.543 1.14099 88.0471 -3.93143 77.7801 -6.6696L73.1417 10.7225ZM49.5726 100.698C43.1434 99.0567 35.6031 102.163 33.0666 109.362L50.0438 115.344C49.1565 117.862 46.741 118.552 45.1205 118.139L49.5726 100.698ZM33.0666 109.362C30.6554 116.206 34.12 124.482 42.0048 126.612L46.6991 109.235C49.7928 110.071 50.8059 113.181 50.0438 115.344L33.0666 109.362ZM40.1877 7.37857C41.6983 14.8561 48.7275 18.9853 55.3252 18.2565L53.349 0.365329C55.0127 0.181548 57.3037 1.20259 57.8313 3.81441L40.1877 7.37857ZM51.4403 -8.46695C43.3328 -7.4534 38.7505 0.263857 40.1877 7.37857L57.8313 3.81441C58.2849 6.05976 56.8513 8.99671 53.6731 9.39402L51.4403 -8.46695Z" fill="#219D80" mask="url(#path-4-inside-1_4_191)"/>
</svg>
